PathFileType	4	(X/Y/Z)	Patient4_TMGait_0pt3_01_left_09.trc.trc
DataRate	CameraRate	NumFrames	NumMarkers	Units	OrigDataRate	OrigDataStartFrame	OrigNumFrames
50.724637681159	50.724637681159	5	33	mm	50.724637681159	1	       141
Frame#	Time	Sacral			L.Shoulder			Chest			R.Shoulder			Neck			R.ASIS			L.ASIS			R.Thigh.Superior			R.Thigh.Lateral			R.Thigh.Inferior			R.Patella			L.Thigh.Superior			L.Thigh.Lateral			L.Thigh.Inferior			L.Patella			L.Shank.Superior			L.Shank.Lateral			L.Shank.Inferior			R.Shank.Superior			R.Shank.Lateral			R.Shank.Inferior			R.Heel			R.Midfoot.Superior			R.Midfoot.Lateral			R.Toe			L.Heel			L.Midfoot.Lateral			L.Midfoot.Superior			L.Toe			L.Elbow			L.Wrist			R.Elbow			R.Wrist			
		X1	Y1	Z1	X2	Y2	Z2	X3	Y3	Z3	X4	Y4	Z4	X5	Y5	Z5	X6	Y6	Z6	X7	Y7	Z7	X8	Y8	Z8	X9	Y9	Z9	X10	Y10	Z10	X11	Y11	Z11	X12	Y12	Z12	X13	Y13	Z13	X14	Y14	Z14	X15	Y15	Z15	X16	Y16	Z16	X17	Y17	Z17	X18	Y18	Z18	X19	Y19	Z19	X20	Y20	Z20	X21	Y21	Z21	X22	Y22	Z22	X23	Y23	Z23	X24	Y24	Z24	X25	Y25	Z25	X26	Y26	Z26	X27	Y27	Z27	X28	Y28	Z28	X29	Y29	Z29	X30	Y30	Z30	X31	Y31	Z31	X32	Y32	Z32	X33	Y33	Z33	

1	16.420000000000	737.579689109354	1002.486668710090	572.007936265718	919.172571531880	1429.838565736814	386.392800542246	1021.099269530825	1364.917324108943	549.183529257168	936.231697086396	1442.191165169548	721.386950098765	902.430483605756	1493.274512968786	548.186002715695	969.956972888883	939.595311211673	690.304030614206	953.912674685918	960.568314851685	417.032401191134	1015.235978935303	740.383832571035	651.095841846365	934.931620686706	625.828270002556	703.229695030271	1011.319946623635	578.635060158339	619.429252320216	1012.322398021807	487.151973592346	620.105325102583	1023.608002647143	758.890956571805	445.816616177330	962.381682625528	637.172409915723	368.804294505305	1054.700118938745	562.455851382159	434.625020327574	1055.511248404631	473.552157699372	424.921890744231	984.659500422431	415.263725133772	410.216873994587	841.212841269484	382.624642773010	359.046754902316	824.445354288796	249.044223015418	403.073683349087	976.979112058514	399.363360329866	622.714239682868	901.568208758764	298.134968795155	682.922394785351	931.247042051118	203.707120822648	614.456873324522	783.150850606572	45.155857217156	588.158553206796	957.193029936195	97.212401183134	616.682874522995	869.409373118724	37.928765362896	658.588749210674	1077.262719605320	41.068729842762	639.982770088751	631.765660608840	184.215288991258	438.929828669633	687.398910232493	148.971386883488	351.860703559555	793.496723238500	152.699551889432	371.746607685211	868.957515529024	44.133239276014	326.519212582326	881.400117112337	1076.624924415392	277.316803381813	948.650978064360	824.838441929445	270.336880673881	936.251781616817	1107.471260957368	873.372844398304	1161.953802905719	980.701357087986	873.487776149918	
2	16.439714285714	736.227467065613	1000.420359683861	576.724605692675	913.680600141930	1427.895289220419	387.884206038814	1018.682994957528	1363.408699775478	548.724051228155	937.014060519663	1441.133564075548	722.172946552904	900.208609670386	1491.731596853564	550.091511285847	970.107577102006	938.060998067993	691.041854515177	949.830647681570	959.880581935647	418.153097974281	1015.340538914248	739.068165268720	650.407005292928	936.426889478681	623.900492255915	703.093948156242	1012.076304511918	577.239940774301	618.312110970296	1013.250689724251	484.996995278456	618.837266948009	1022.833867618357	760.697740485866	446.476397645965	964.005159151105	638.432075438437	369.281737355024	1057.806573265522	565.439505244148	434.763961032944	1060.995370326388	477.075716251605	424.301849713672	992.577972101661	417.110158610433	409.244954645030	850.537850122940	378.674986662432	359.450208731263	840.656700533687	244.391607372180	402.026349081419	976.287374672968	397.445520130654	621.853052928192	899.555487315432	297.360159125299	682.307256733269	927.312078278846	202.602144461572	613.887532531287	777.084690544733	45.151066733512	588.135741741355	951.206659835149	97.136722012060	616.561738999856	863.363673492283	37.950643953751	658.584228466682	1071.220871421700	40.977415176832	640.045037210949	652.602423605083	169.728449231410	439.607646832362	708.264213807451	138.833357800689	351.333715210981	813.816809458782	147.909193893912	369.979849718723	893.824727690150	44.753783798091	321.956893678763	868.459340065145	1076.678789589447	277.774066287843	929.380831237412	823.758548660902	266.676420446265	950.313060917591	1107.435281566923	873.367593234844	1180.690919864847	995.568715460398	862.537591905766	
3	16.459428571429	734.756360303742	998.341578754222	581.490233447351	907.989359956857	1425.910796464548	389.389718198789	1016.166453227376	1361.835841036216	548.172880490615	937.847799788483	1440.001950343890	722.910044558485	897.892263004543	1490.139768188958	551.968237361826	970.225327059313	936.461568893014	691.664705719023	945.563213022720	959.118910501087	419.190885880293	1015.359348326488	737.697937963976	649.616648576567	937.884069233338	621.933548087690	702.922636890264	1012.730168306400	575.800434708616	617.112999440433	1014.073473695388	482.794976739265	617.515103409964	1021.798184850012	762.453023903670	447.067964378653	965.418458158268	639.675198669527	369.644831268990	1060.696725107044	568.445466927502	434.788677088661	1066.344784070882	480.698643806065	423.551072997718	1000.527997469384	419.025193497011	408.135196924961	860.165376009884	374.480919049287	359.619417174781	857.460887279369	239.649515340104	400.790447188089	975.475411067022	395.483310082182	620.956879769041	897.446844802586	296.557438200440	681.698061454110	923.234392415849	201.470945891008	613.315226023215	770.860536281575	45.149870597730	588.125453574138	945.054871830833	97.052004346612	616.440393275798	857.157866145122	37.968563971682	658.589086789591	1065.016420444580	40.878086551837	640.104962787599	674.392639663970	154.918891153193	439.961672510170	730.148337743324	128.365281677090	350.565066466284	834.999872792795	142.981662247416	368.050579752373	919.672305160117	45.417284998626	317.436667944061	855.158005834206	1076.717769913912	278.444526248175	909.688904429927	822.723688058973	263.132306475650	964.825371712967	1107.434294226861	872.974124612180	1199.475864819055	1010.898816428576	850.675910341436	
4	16.479142857143	733.166122170855	996.342646741070	586.158441099022	902.192318375154	1423.959660872050	390.860063838806	1013.583191315160	1360.248986138694	547.497626118191	938.726373541490	1438.827373296846	723.539328299278	895.510632410151	1488.555300163744	553.734118865235	970.281737422768	934.841190847840	692.095833132529	941.165510190739	958.306834186456	420.068425446699	1015.221149121274	736.303108416501	648.708347058714	939.188861212334	619.992629785523	702.709484017243	1013.163621189776	574.351221587129	615.842907366598	1014.656024926004	480.611083357366	616.165429553079	1020.414243014719	764.100024076688	447.529322258511	966.457152010887	640.875876745014	369.815825029621	1063.154931563954	571.397191365728	434.625083707327	1071.293480483346	484.367065453109	422.620257811711	1008.231072317473	421.002702483133	406.850966930405	869.898831200090	370.111997697141	359.415274181591	874.539983540015	234.982642842616	399.303086526827	974.464217972664	393.537239835311	620.046727044091	895.220768858731	295.748200225518	681.121425102304	919.050252280506	200.347767725792	612.761496338986	764.594113807736	45.152466543229	588.133415608210	938.844859796399	96.957434236722	616.323345284922	850.903677405075	37.978834115887	658.606486654222	1058.760244443480	40.772332549323	640.159599780977	696.815317323652	140.196022743210	439.800079419208	752.765747466574	117.831646773335	349.444204312514	856.710398470615	138.075844855773	365.934028034480	946.057606525740	46.174713831972	313.126419409149	841.770074234846	1076.757630165668	279.422071772156	890.020191296327	821.813471872959	259.904394688075	979.516276422688	1107.518110050873	871.955923990080	1217.636876554747	1026.420146298225	837.771581057574	
5	16.498857142857	731.463188162871	994.515014530131	590.610022789131	896.362248516912	1422.123031843034	392.254145163479	1010.958409455025	1358.710952716711	546.668732249001	939.642456406540	1437.657179135709	724.007227114792	893.087682767306	1487.043229623183	555.328090126789	970.249267979986	933.252999627824	692.274258108994	936.684051161131	957.487804166286	420.724365109532	1014.853898668331	734.916907358277	647.678109148323	940.216545513947	618.143627845629	702.451590305637	1013.253786624771	572.927585199862	614.521736383113	1014.854867470062	478.508521881595	614.818625658021	1018.616798780365	765.614840921228	447.809543118516	966.984082899527	642.032315004389	369.726180694897	1065.004533241689	574.246512017270	434.201152000867	1075.618358023302	488.052493136163	421.460340066152	1015.446093988188	423.057578735120	405.355837532614	879.560304610485	365.669635632967	358.722936452389	891.602812762374	230.567582279572	397.505969881579	973.161408732282	391.667898964577	619.146156093615	892.830402255383	294.956775045259	680.601279440557	914.768065845227	199.267866607656	612.246700698081	758.362006726725	45.160938123077	588.163860394927	932.650336893999	96.854528411170	616.215859370423	844.676964907515	37.979506161872	658.638341843586	1052.527639316579	40.661624004378	640.207322130543	719.566899949316	125.952216970108	438.970653573214	775.836560249507	107.518730309396	347.877420401215	878.632675591743	133.376132325010	363.600058050554	972.565642254269	47.121177995363	309.132397811245	828.523569072909	1076.825779491238	280.794752201266	870.708336150139	821.102557536780	257.166170510499	994.162967323630	1107.748883124170	870.082462272751	1234.596300416039	1041.925442453108	823.670134170897	
